<svg width="30" height="30" viewBox="0 0 30 30" fill="none" xmlns="http://www.w3.org/2000/svg">
<circle cx="15" cy="15" r="15" fill="#1DBF73"/>
<path d="M23.0099 12.3249L15.7678 5.07546C15.2743 4.58151 14.6358 4.32001 13.9391 4.32001C13.257 4.32001 12.6039 4.58151 12.1105 5.07546L8.01773 9.18689C7.59685 9.6082 7.3211 10.1312 7.24853 10.7123C7.13242 11.5259 7.40817 12.3104 7.97419 12.877L15.2163 20.1265C15.3324 20.2427 15.4195 20.3444 15.5065 20.4752C15.5211 20.4897 15.5211 20.5187 15.5356 20.5333C15.9855 21.2597 15.9855 22.1749 15.5211 22.8868C15.5065 22.9013 15.5065 22.9159 15.492 22.9304C15.4195 23.0466 15.3324 23.1483 15.2308 23.2355C15.2163 23.25 15.2163 23.2645 15.2018 23.2645L14.6648 23.8021C14.2729 24.1943 13.5763 24.1943 13.1844 23.8021L9.03365 19.6616C8.83047 19.4582 8.72888 19.1967 8.72888 18.9207C8.72888 18.6446 8.84498 18.3831 9.03365 18.1797L9.86091 17.3516C10.0206 17.1918 10.0206 16.9449 9.86091 16.785L9.33843 16.262C9.17879 16.1022 8.93206 16.1022 8.77242 16.262L7.97419 17.1047C7.45171 17.6277 7.17596 18.325 7.2195 19.0659C7.24853 19.7197 7.55331 20.3299 8.01773 20.7948L12.125 24.9062C12.6329 25.4147 13.286 25.6617 13.9536 25.6617C14.6212 25.6617 15.2743 25.4147 15.7823 24.9062L23.0244 17.6567C24.4757 16.1749 24.4757 13.7923 23.0099 12.3249ZM21.9359 16.5671L17.3642 21.1434V21.1289C17.3062 20.7512 17.1901 20.4025 17.0304 20.0684C17.0159 20.0538 17.0159 20.0393 17.0014 20.0248C16.9288 19.865 16.8272 19.7052 16.7257 19.5599C16.7111 19.5308 16.6821 19.5018 16.6676 19.4873C16.5515 19.342 16.4354 19.1967 16.3048 19.0659L9.06268 11.7874C8.8595 11.584 8.7579 11.3225 8.7579 11.0465C8.7579 10.7704 8.87401 10.5089 9.06268 10.3055L13.2135 6.16506C13.4166 5.96167 13.6779 5.85998 13.9536 5.85998C14.2294 5.85998 14.4906 5.96167 14.6938 6.16506L21.9359 13.4145C22.7922 14.2862 22.7922 15.6954 21.9359 16.5671Z" fill="white"/>
</svg>
